<mxfile host="app.diagrams.net" agent="Mozilla/5.0 (Windows NT 10.0; Win64; x64) AppleWebKit/537.36 (KHTML, like Gecko) Chrome/131.0.0.0 Safari/537.36" version="25.0.3">
  <diagram name="페이지-1" id="xTZ9YWZE4dSx2r3y-h--">
    <mxGraphModel dx="1050" dy="522" grid="1" gridSize="10" guides="1" tooltips="1" connect="1" arrows="1" fold="1" page="1" pageScale="1" pageWidth="827" pageHeight="1169" math="0" shadow="0">
      <root>
        <mxCell id="0" />
        <mxCell id="1" parent="0" />
        <mxCell id="T9QNFWMW0mG8JjxY7FEe-6" value="" style="rounded=1;whiteSpace=wrap;html=1;fillColor=none;" vertex="1" parent="1">
          <mxGeometry x="228" y="470" width="442" height="350" as="geometry" />
        </mxCell>
        <mxCell id="T9QNFWMW0mG8JjxY7FEe-1" value="" style="sketch=0;points=[[0,0,0],[0.25,0,0],[0.5,0,0],[0.75,0,0],[1,0,0],[0,1,0],[0.25,1,0],[0.5,1,0],[0.75,1,0],[1,1,0],[0,0.25,0],[0,0.5,0],[0,0.75,0],[1,0.25,0],[1,0.5,0],[1,0.75,0]];outlineConnect=0;fontColor=#232F3E;fillColor=#7AA116;strokeColor=#ffffff;dashed=0;verticalLabelPosition=bottom;verticalAlign=top;align=center;html=1;fontSize=12;fontStyle=0;aspect=fixed;shape=mxgraph.aws4.resourceIcon;resIcon=mxgraph.aws4.elastic_block_store;" vertex="1" parent="1">
          <mxGeometry x="420" y="690" width="78" height="78" as="geometry" />
        </mxCell>
        <mxCell id="T9QNFWMW0mG8JjxY7FEe-15" style="edgeStyle=orthogonalEdgeStyle;rounded=0;orthogonalLoop=1;jettySize=auto;html=1;" edge="1" parent="1" source="T9QNFWMW0mG8JjxY7FEe-2" target="T9QNFWMW0mG8JjxY7FEe-3">
          <mxGeometry relative="1" as="geometry" />
        </mxCell>
        <mxCell id="T9QNFWMW0mG8JjxY7FEe-2" value="" style="sketch=0;points=[[0,0,0],[0.25,0,0],[0.5,0,0],[0.75,0,0],[1,0,0],[0,1,0],[0.25,1,0],[0.5,1,0],[0.75,1,0],[1,1,0],[0,0.25,0],[0,0.5,0],[0,0.75,0],[1,0.25,0],[1,0.5,0],[1,0.75,0]];outlineConnect=0;fontColor=#232F3E;fillColor=#8C4FFF;strokeColor=#ffffff;dashed=0;verticalLabelPosition=bottom;verticalAlign=top;align=center;html=1;fontSize=12;fontStyle=0;aspect=fixed;shape=mxgraph.aws4.resourceIcon;resIcon=mxgraph.aws4.serverless;" vertex="1" parent="1">
          <mxGeometry x="270" y="521" width="78" height="78" as="geometry" />
        </mxCell>
        <mxCell id="T9QNFWMW0mG8JjxY7FEe-3" value="" style="image;aspect=fixed;html=1;points=[];align=center;fontSize=12;image=img/lib/azure2/databases/Azure_Database_MySQL_Server.svg;" vertex="1" parent="1">
          <mxGeometry x="562" y="528" width="48" height="64" as="geometry" />
        </mxCell>
        <mxCell id="T9QNFWMW0mG8JjxY7FEe-8" style="edgeStyle=orthogonalEdgeStyle;rounded=0;orthogonalLoop=1;jettySize=auto;html=1;" edge="1" parent="1" source="T9QNFWMW0mG8JjxY7FEe-5" target="T9QNFWMW0mG8JjxY7FEe-2">
          <mxGeometry relative="1" as="geometry" />
        </mxCell>
        <mxCell id="T9QNFWMW0mG8JjxY7FEe-5" value="" style="points=[[0.35,0,0],[0.98,0.51,0],[1,0.71,0],[0.67,1,0],[0,0.795,0],[0,0.65,0]];verticalLabelPosition=bottom;sketch=0;html=1;verticalAlign=top;aspect=fixed;align=center;pointerEvents=1;shape=mxgraph.cisco19.user;fillColor=#005073;strokeColor=none;" vertex="1" parent="1">
          <mxGeometry x="70" y="520" width="80" height="80" as="geometry" />
        </mxCell>
        <mxCell id="T9QNFWMW0mG8JjxY7FEe-9" value="Vercel" style="text;strokeColor=none;fillColor=none;html=1;fontSize=24;fontStyle=1;verticalAlign=middle;align=center;" vertex="1" parent="1">
          <mxGeometry x="259" y="490" width="100" height="40" as="geometry" />
        </mxCell>
        <mxCell id="T9QNFWMW0mG8JjxY7FEe-10" value="cloudflare r2" style="text;strokeColor=none;fillColor=none;html=1;fontSize=24;fontStyle=1;verticalAlign=middle;align=center;" vertex="1" parent="1">
          <mxGeometry x="409" y="653" width="100" height="40" as="geometry" />
        </mxCell>
        <mxCell id="T9QNFWMW0mG8JjxY7FEe-12" value="TIDBCloud" style="text;strokeColor=none;fillColor=none;html=1;fontSize=24;fontStyle=1;verticalAlign=middle;align=center;" vertex="1" parent="1">
          <mxGeometry x="536" y="498" width="100" height="40" as="geometry" />
        </mxCell>
        <mxCell id="T9QNFWMW0mG8JjxY7FEe-13" value="Frontend cloud platform" style="text;html=1;align=center;verticalAlign=middle;whiteSpace=wrap;rounded=0;" vertex="1" parent="1">
          <mxGeometry x="259" y="600" width="100" height="30" as="geometry" />
        </mxCell>
        <mxCell id="T9QNFWMW0mG8JjxY7FEe-14" value="cloud database" style="text;html=1;align=center;verticalAlign=middle;whiteSpace=wrap;rounded=0;" vertex="1" parent="1">
          <mxGeometry x="536" y="592" width="100" height="30" as="geometry" />
        </mxCell>
        <mxCell id="T9QNFWMW0mG8JjxY7FEe-16" style="edgeStyle=orthogonalEdgeStyle;rounded=0;orthogonalLoop=1;jettySize=auto;html=1;entryX=1;entryY=0.5;entryDx=0;entryDy=0;entryPerimeter=0;" edge="1" parent="1" source="T9QNFWMW0mG8JjxY7FEe-3" target="T9QNFWMW0mG8JjxY7FEe-1">
          <mxGeometry relative="1" as="geometry">
            <Array as="points">
              <mxPoint x="540" y="560" />
              <mxPoint x="540" y="729" />
            </Array>
          </mxGeometry>
        </mxCell>
        <mxCell id="T9QNFWMW0mG8JjxY7FEe-17" value="cloud storage" style="text;html=1;align=center;verticalAlign=middle;whiteSpace=wrap;rounded=0;" vertex="1" parent="1">
          <mxGeometry x="409" y="768" width="100" height="30" as="geometry" />
        </mxCell>
        <mxCell id="T9QNFWMW0mG8JjxY7FEe-18" style="edgeStyle=orthogonalEdgeStyle;rounded=0;orthogonalLoop=1;jettySize=auto;html=1;entryX=1;entryY=0.5;entryDx=0;entryDy=0;entryPerimeter=0;" edge="1" parent="1" source="T9QNFWMW0mG8JjxY7FEe-3" target="T9QNFWMW0mG8JjxY7FEe-2">
          <mxGeometry relative="1" as="geometry" />
        </mxCell>
        <mxCell id="T9QNFWMW0mG8JjxY7FEe-20" style="edgeStyle=orthogonalEdgeStyle;rounded=0;orthogonalLoop=1;jettySize=auto;html=1;entryX=0.98;entryY=0.51;entryDx=0;entryDy=0;entryPerimeter=0;" edge="1" parent="1" source="T9QNFWMW0mG8JjxY7FEe-2" target="T9QNFWMW0mG8JjxY7FEe-5">
          <mxGeometry relative="1" as="geometry" />
        </mxCell>
        <mxCell id="T9QNFWMW0mG8JjxY7FEe-21" value="serverless Function" style="text;html=1;align=center;verticalAlign=middle;whiteSpace=wrap;rounded=0;" vertex="1" parent="1">
          <mxGeometry x="420" y="530" width="60" height="30" as="geometry" />
        </mxCell>
        <mxCell id="T9QNFWMW0mG8JjxY7FEe-22" value="Cloud server" style="text;strokeColor=none;fillColor=none;html=1;fontSize=24;fontStyle=1;verticalAlign=middle;align=center;" vertex="1" parent="1">
          <mxGeometry x="257" y="430" width="100" height="40" as="geometry" />
        </mxCell>
        <mxCell id="T9QNFWMW0mG8JjxY7FEe-24" value="User" style="text;html=1;align=center;verticalAlign=middle;whiteSpace=wrap;rounded=0;" vertex="1" parent="1">
          <mxGeometry x="73" y="599" width="60" height="30" as="geometry" />
        </mxCell>
        <mxCell id="T9QNFWMW0mG8JjxY7FEe-25" value="HTTP Request" style="text;html=1;align=center;verticalAlign=middle;whiteSpace=wrap;rounded=0;" vertex="1" parent="1">
          <mxGeometry x="172" y="528" width="60" height="30" as="geometry" />
        </mxCell>
        <mxCell id="T9QNFWMW0mG8JjxY7FEe-26" value="R&lt;span style=&quot;background-color: initial;&quot;&gt;esponse&lt;/span&gt;" style="text;html=1;align=center;verticalAlign=middle;whiteSpace=wrap;rounded=0;" vertex="1" parent="1">
          <mxGeometry x="172" y="557" width="60" height="30" as="geometry" />
        </mxCell>
      </root>
    </mxGraphModel>
  </diagram>
</mxfile>
